HIERARCHY
ROOT Bip001_Pelvis
{
  OFFSET 34.4345 95.6767 -26.8758
  CHANNELS 6 Xposition Yposition Zposition Zrotation Xrotation Yrotation
  JOINT Bip001_Spine
  {
    OFFSET 1.4188e-005 10.2191 -0.0116013
    CHANNELS 3 Zrotation Xrotation Yrotation
    JOINT Bip001_L_Thigh
    {
      OFFSET 11.0458 -10.2192 0.0116197
      CHANNELS 3 Zrotation Xrotation Yrotation
      JOINT Bip001_L_Calf
      {
        OFFSET -0.707118 -44.0221 0.360014
        CHANNELS 3 Zrotation Xrotation Yrotation
        JOINT Bip001_L_Foot
        {
          OFFSET -0.651902 -40.5938 -3.56146
          CHANNELS 3 Zrotation Xrotation Yrotation
          JOINT Bip001_L_Toe0
          {
            OFFSET 0.0530839 -10.2181 13.1504
            CHANNELS 3 Zrotation Xrotation Yrotation
            End Site
            {
              OFFSET -1.02532e-005 0 7.55606
            }
          }
        }
      }
    }
    JOINT Bip001_R_Thigh
    {
      OFFSET -11.0458 -10.2191 0.0115893
      CHANNELS 3 Zrotation Xrotation Yrotation
      JOINT Bip001_R_Calf
      {
        OFFSET 0.706994 -44.0221 0.35984
        CHANNELS 3 Zrotation Xrotation Yrotation
        JOINT Bip001_R_Foot
        {
          OFFSET 0.651786 -40.5938 -3.5613
          CHANNELS 3 Zrotation Xrotation Yrotation
          JOINT Bip001_R_Toe0
          {
            OFFSET -0.0531479 -10.2181 13.1504
            CHANNELS 3 Zrotation Xrotation Yrotation
            End Site
            {
              OFFSET -1.02894e-005 0 7.55606
            }
          }
        }
      }
    }
    JOINT Bip001_Spine1
    {
      OFFSET 1.87041e-005 14.5736 1.08638
      CHANNELS 3 Zrotation Xrotation Yrotation
      JOINT Bip001_Spine2
      {
        OFFSET 2.24614e-005 14.5058 -1.69078
        CHANNELS 3 Zrotation Xrotation Yrotation
        JOINT Bip001_Neck
        {
          OFFSET 2.20278e-005 15.3945 -0.489414
          CHANNELS 3 Zrotation Xrotation Yrotation
          JOINT Bip001_L_Clavicle
          {
            OFFSET 6.06036 -0.000579998 0.00836775
            CHANNELS 3 Zrotation Xrotation Yrotation
            JOINT Bip001_L_UpperArm
            {
              OFFSET 11.5509 -0.0600302 0.00193952
              CHANNELS 3 Zrotation Xrotation Yrotation
              JOINT Bip001_L_Forearm
              {
                OFFSET 25.9523 0.0806089 -2.15551
                CHANNELS 3 Zrotation Xrotation Yrotation
                JOINT Bip001_L_Hand
                {
                  OFFSET 32.2475 0.153767 1.63968
                  CHANNELS 3 Zrotation Xrotation Yrotation
                  JOINT Bip001_L_Finger0
                  {
                    OFFSET 6.04639 -2.20976 5.90322
                    CHANNELS 3 Zrotation Xrotation Yrotation
                    End Site
                    {
                      OFFSET 4.22375 -1.43895 0.606485
                    }
                  }
                  JOINT Bip001_L_Finger1
                  {
                    OFFSET 11.0826 -0.704819 -0.198153
                    CHANNELS 3 Zrotation Xrotation Yrotation
                    End Site
                    {
                      OFFSET 6.20027 -0.397518 -0.0787166
                    }
                  }
                }
              }
            }
          }
          JOINT Bip001_R_Clavicle
          {
            OFFSET -6.06037 -0.000563197 0.00835105
            CHANNELS 3 Zrotation Xrotation Yrotation
            JOINT Bip001_R_UpperArm
            {
              OFFSET -11.5509 -0.0599978 0.00190698
              CHANNELS 3 Zrotation Xrotation Yrotation
              JOINT Bip001_R_Forearm
              {
                OFFSET -25.9523 0.0806822 -2.15589
                CHANNELS 3 Zrotation Xrotation Yrotation
                JOINT Bip001_R_Hand
                {
                  OFFSET -32.2475 0.153859 1.63989
                  CHANNELS 3 Zrotation Xrotation Yrotation
                  JOINT Bip001_R_Finger0
                  {
                    OFFSET -6.04641 -2.20976 5.90317
                    CHANNELS 3 Zrotation Xrotation Yrotation
                    End Site
                    {
                      OFFSET -4.22376 -1.43895 0.60647
                    }
                  }
                  JOINT Bip001_R_Finger1
                  {
                    OFFSET -11.0826 -0.704794 -0.198182
                    CHANNELS 3 Zrotation Xrotation Yrotation
                    End Site
                    {
                      OFFSET -6.20028 -0.397504 -0.0787333
                    }
                  }
                }
              }
            }
          }
          JOINT Bip001_Head
          {
            OFFSET 1.09673e-005 11.2744 2.05948
            CHANNELS 3 Zrotation Xrotation Yrotation
            End Site
            {
              OFFSET 2.89576e-005 20.8808 -2.77728e-005
            }
          }
        }
      }
    }
  }
}
MOTION
Frames:	10
Frame Time:	0.04
31.89 95.9358 -28.86 -2.09832 -0.0243858 6.83427 -0.359948 1.77067 0.887935 9.74381 -6.22859 4.09436 -2.90583 10.5379 -10.0744 2.31466 -5.10616 0.0182064 0.574229 -3.95613 -0.105063 1.3521 -1.38991 -0.528641 -0.981845 7.22481 -0.398262 -7.27989 -6.40633 -3.74974 2.34061 -7.8582 2.32311 -0.741162 3.53556 1.78727 -0.741256 3.5356 1.78773 1.87656 -9.67651 -6.97506 -25.8677 8.52472 4.56809 -58.944 45.4309 10.9738 16.4499 -11.4757 -29.4552 8.31729 1.97858 0.0656141 -1.59028e-015 0 -3.18055e-015 -0 -3.18056e-015 -0 -5.04558 11.5238 37.3245 21.6483 -26.0456 59.4145 -71.4925 15.2658 43.0621 -35.6559 -20.6541 -27.252 5.96354e-016 3.18055e-015 6.95746e-016 5.96354e-016 6.36111e-015 3.97569e-016 0.116555 -4.25824 -6.3081 
31.9172 95.9472 -28.902 -1.9472 0.00156262 6.87192 -0.363152 1.71831 0.925356 9.50362 -6.08627 4.06691 -2.80714 10.241 -10.0607 2.71094 -4.82189 0.00243817 0.734341 -4.04793 -0.258098 1.16436 -1.44718 -0.649996 -0.954046 7.39564 -0.393557 -7.26065 -6.49597 -3.7179 2.3346 -7.80587 2.29466 -0.752188 3.4305 1.86363 -0.752419 3.4305 1.86342 2.24788 -9.22132 -7.13348 -25.9291 8.11982 4.11624 -60.1376 45.3021 11.9399 16.3604 -11.4003 -29.5884 8.69506 2.02418 -0.0627076 7.95139e-015 -3.18055e-015 -0 9.54166e-015 -3.18056e-015 -0 -5.77312 10.6831 35.6523 24.6481 -27.9642 60.7666 -71.2716 14.92 47.5856 -35.0845 -18.4611 -26.5048 3.23025e-016 -6.36111e-015 -8.69683e-017 4.96962e-017 -9.54167e-015 -2.11209e-016 -0.616752 -3.92796 -6.29517 
32.0278 95.9796 -28.9201 -1.697 -0.125075 6.48572 -0.365165 1.71373 0.888576 9.17665 -5.69308 4.26111 -2.63284 9.98196 -9.69272 1.47103 -5.29275 0.0224924 0.348442 -3.35076 0.0451647 0.825526 -1.47252 -0.288586 -0.901736 7.67894 -0.372646 -7.18792 -6.56955 -3.65581 2.30606 -7.70578 2.25772 -0.757989 3.43142 1.7893 -0.757887 3.43145 1.78932 2.15271 -8.61025 -6.85597 -25.8722 7.62776 3.83522 -60.6238 45.5983 12.3663 16.3587 -11.0476 -29.1217 8.36 2.06541 -0.147283 -1.59028e-015 3.18055e-015 3.18055e-015 1.59028e-015 0 3.18055e-015 -7.3114 9.29924 34.2756 19.5612 -25.4383 60.6117 -64.1423 10.699 40.8431 -35.0971 -10.5623 -23.993 -3.97569e-016 3.18055e-015 1.59028e-015 3.97569e-016 3.18056e-015 1.98785e-015 -0.583454 -3.90547 -6.03388 
32.1314 96.0037 -28.9651 -1.59761 -0.23896 6.00264 -0.370688 1.70952 0.831847 8.9004 -5.41461 4.51456 -2.39033 9.88028 -9.292 1.89792 -5.18489 0.0202208 0.63002 -3.49289 -0.234524 0.609441 -1.42744 0.16327 -0.798915 7.70944 -0.252174 -7.13872 -6.52244 -3.614 2.28803 -7.64264 2.22894 -0.766696 3.41346 1.67587 -0.766694 3.41346 1.67587 1.95253 -8.11632 -6.41397 -25.7795 7.3117 3.50464 -60.718 45.9147 12.4451 16.0682 -11.002 -28.3943 7.45266 2.36873 0.145013 4.77083e-015 6.36111e-015 -0 3.18055e-015 9.54167e-015 -0 -8.00174 8.4533 33.408 16.4961 -23.323 60.3459 -58.9774 6.90201 36.6266 -35.5197 -4.76717 -21.7669 -7.95139e-016 0 1.98785e-016 -9.93923e-016 -3.18056e-015 -0 -0.322192 -4.0057 -5.70383 
32.2841 96.0009 -29.0317 -1.34244 -0.312311 5.33383 -0.409173 1.69239 0.879326 8.4017 -4.99385 4.82458 -2.05985 9.47365 -9.18545 2.05742 -4.85331 0.0109967 0.647354 -3.78998 -0.250563 0.122016 -1.67715 0.559289 -0.500517 8.24316 -0.213162 -7.10015 -6.7796 -3.47596 2.27165 -7.59501 2.21645 -0.844812 3.37721 1.77188 -0.844814 3.37725 1.77188 2.04203 -8.07889 -6.25693 -25.9108 7.30289 3.43942 -60.9215 46.5233 12.0377 15.7955 -11.0141 -26.9769 7.02266 2.47113 0.108152 -3.18055e-015 3.18055e-015 -3.18055e-015 -3.18055e-015 3.18056e-015 -6.36111e-015 -7.82065 8.48525 32.5832 16.3565 -21.5728 60.4919 -55.9771 3.58362 36.1828 -34.6234 -1.55215 -19.534 1.98785e-016 -3.18055e-015 -7.95139e-016 1.98785e-016 3.18056e-015 -8.94531e-016 -0.473875 -3.75447 -5.49043 
32.4069 96.0001 -29.1174 -1.07716 -0.319208 4.70124 -0.430478 1.71655 0.961978 7.89268 -4.70835 5.07085 -1.76528 9.06147 -9.05341 2.37199 -4.47662 -0.00192657 0.756738 -4.03654 -0.307462 -0.379478 -2.05589 0.924198 -0.209891 8.79173 -0.254461 -7.03727 -7.04642 -3.28352 2.23706 -7.49935 2.19828 -0.890453 3.42556 1.93856 -0.890381 3.42557 1.93835 2.26713 -8.50207 -6.24274 -26.3434 7.68451 3.49713 -60.7328 46.4291 11.6371 15.5918 -10.4595 -26.7663 6.80807 2.4792 0.1969 1.76556e-031 -6.36111e-015 1.59028e-015 -3.18055e-015 -6.36111e-015 1.59028e-015 -6.25966 9.56659 31.8334 22.8636 -22.3816 61.174 -58.975 5.54786 44.9307 -34.2645 -1.073 -19.8376 -5.96354e-016 -3.18055e-015 -1.98785e-016 -5.96354e-016 -3.18056e-015 2.98177e-016 -0.877481 -3.65047 -5.36371 
32.4914 96.0021 -29.2136 -0.870448 -0.323725 4.3025 -0.445396 1.75748 0.966056 7.51421 -4.56589 5.04294 -1.57085 8.76332 -8.70321 2.41388 -4.25844 -0.00966588 0.799933 -4.11899 -0.325459 -0.753884 -2.33048 1.05374 -0.0244835 9.09929 -0.293267 -6.94327 -7.24079 -3.02131 2.22702 -7.4516 2.16613 -0.920234 3.50715 1.94669 -0.920307 3.50715 1.94691 2.30724 -8.94003 -6.14173 -26.4622 8.12084 3.57445 -60.2512 46.0137 11.1204 15.0519 -9.88064 -26.9946 7.15724 2.4708 0.171869 2.64834e-031 9.54166e-015 -1.59028e-015 0 9.54167e-015 -0 -3.47455 11.0724 31.2302 31.4684 -24.755 61.3955 -64.089 7.75871 56.9591 -36.1023 0.400117 -19.5737 7.95139e-016 3.18055e-015 3.97569e-016 7.95139e-016 3.18056e-015 3.97569e-016 -1.01701 -3.64193 -5.2167 
32.5646 95.9986 -29.3138 -0.677956 -0.244138 4.10813 -0.465579 1.77614 0.891415 7.20429 -4.52989 4.99325 -1.48797 8.47156 -8.47248 2.64207 -3.94763 -0.021942 0.865099 -4.28207 -0.368781 -1.06787 -2.61912 1.12991 0.10778 9.36569 -0.262937 -6.91448 -7.40358 -2.88946 2.21316 -7.43078 2.18086 -0.959453 3.54475 1.79853 -0.959454 3.54476 1.79854 1.92432 -9.55502 -5.89635 -25.9948 8.75581 3.90379 -60.2246 45.957 10.8151 14.8118 -10.1631 -27.225 7.3079 2.45277 0.077345 -4.77083e-015 -3.18055e-015 -1.59028e-015 -4.77083e-015 -6.36111e-015 -0 0.445471 13.0525 30.5696 42.4124 -29.8442 61.3002 -70.2794 8.86976 73.3531 -38.1666 0.694145 -19.4741 -1.59028e-015 0 -5.96354e-016 -7.95139e-016 -3.18056e-015 -3.97569e-016 -0.854919 -3.38156 -5.10135 
32.8315 95.9923 -29.3575 -0.0790422 -0.345546 4.16079 -0.55257 1.79648 0.814848 6.27667 -4.0034 4.67634 -1.14755 7.55272 -8.40171 2.89439 -3.29888 -0.0438517 0.866935 -4.50399 -0.374901 -1.89067 -2.7991 0.331138 0.2251 10.0468 -0.251878 -6.72782 -7.96577 -2.2082 2.22407 -7.46182 2.18915 -1.1315 3.58484 1.64822 -1.1315 3.58484 1.64822 1.61676 -9.61487 -5.77989 -25.7404 8.94652 3.65762 -60.7479 45.8867 11.0654 15.4451 -10.2626 -26.943 7.31795 2.16383 -0.402932 1.59028e-015 0 -3.18055e-015 3.18055e-015 6.36111e-015 -3.18055e-015 4.45733 14.3475 29.3594 52.4548 -36.1739 59.3241 -70.1309 7.19539 89.5857 -40.8108 3.42659 -19.0533 -1.59028e-015 0 -7.95139e-016 -7.95139e-016 0 -5.96354e-016 -0.745645 -3.36845 -5.07551 
32.7078 95.9936 -29.505 -0.224793 0.103262 3.86895 -0.507525 1.72639 0.815915 6.62302 -4.49904 5.01927 -1.51046 7.7444 -8.29027 2.92163 -3.40516 -0.0453672 0.889681 -4.46027 -0.371716 -1.67048 -3.31635 1.3967 0.237396 9.98819 -0.393969 -6.87323 -7.7313 -2.78716 2.23585 -7.50817 2.21525 -1.04146 3.4453 1.64838 -1.0409 3.44531 1.64835 1.44904 -10.4227 -5.61105 -25.7694 9.72953 3.96777 -60.3931 45.9295 10.6422 15.7123 -9.90281 -26.6893 7.47115 1.84949 -0.86484 1.59028e-015 -3.18055e-015 3.18055e-015 1.59028e-015 -6.36111e-015 -3.18055e-015 8.45007 16.1951 27.3422 49.5024 -36.9417 48.4426 -62.7783 2.77671 94.6291 -43.8107 9.31452 -15.1136 -7.95139e-016 1.59028e-015 -9.93923e-017 3.97569e-016 0 9.93923e-017 -0.816447 -2.65715 -4.92052 
